<?xml version="1.0" encoding="UTF-8"?>
<svg id="Calque_1" data-name="Calque 1" xmlns="http://www.w3.org/2000/svg" xmlns:xlink="http://www.w3.org/1999/xlink" viewBox="0 0 1105.04 782.74">
  <defs>
    <linearGradient id="Dégradé_sans_nom" data-name="Dégradé sans nom" x1="403.58" y1="-49.48" x2="403.58" y2="565.84" gradientTransform="translate(-47.24 725.37) scale(1 -1)" gradientUnits="userSpaceOnUse">
      <stop offset="0" stop-color="gray" stop-opacity=".25"/>
      <stop offset=".54" stop-color="gray" stop-opacity=".12"/>
      <stop offset="1" stop-color="gray" stop-opacity=".1"/>
    </linearGradient>
    <linearGradient id="Dégradé_sans_nom_2" data-name="Dégradé sans nom 2" x1="940.71" y1="-41.72" x2="940.71" y2="520.31" gradientTransform="translate(-47.24 725.37) scale(1 -1)" gradientUnits="userSpaceOnUse">
      <stop offset="0" stop-color="gray" stop-opacity=".25"/>
      <stop offset=".54" stop-color="gray" stop-opacity=".12"/>
      <stop offset="1" stop-color="gray" stop-opacity=".1"/>
    </linearGradient>
  </defs>
  <ellipse cx="367.38" cy="766.65" rx="97.44" ry="15.65" style="fill: #206ba8; isolation: isolate; opacity: .1;"/>
  <ellipse cx="897.05" cy="767.09" rx="121.59" ry="15.65" style="fill: #206ba8; isolation: isolate; opacity: .1;"/>
  <path d="M13.84,338.2H115.33v138.33H21.27c-.25,1.42-.49,2.85-.75,4.28H115.33v111.56c-.17-.05-.32-.11-.48-.17-2.68-1.06-5.34-2.18-8-3.38l-1.7-.77c-2.67-1.26-5.33-2.59-8-4-.93-.49-1.86-1-2.78-1.52-14.8-8.29-28.25-18.8-39.88-31.16-.34-.33-.66-.68-1-1-1.62-1.76-3.21-3.54-4.75-5.36l-1.7-2c-1.82-2.23-3.58-4.52-5.29-6.84-.25-.34-.49-.68-.75-1-6.95-9.64-12.73-20.08-17.2-31.1-.14-.33-.26-.69-.39-1-1.37-3.53-2.59-7.1-3.65-10.7-.46-1.51-.9-3-1.28-4.57-.14-.46-.26-.91-.37-1.36-5.68-22.17-6.35-45.2-6.35-68.07v-8c0-9.25,.11-18.56,.27-27.86,0-2.41,.1-4.81,.15-7.23,.14-6.14,.34-12.28,.6-18.42,.06-1.71,.14-3.41,.23-5.11,0-.98,.05-1.96,.15-2.94,.24-3.56,.44-7.09,.68-10.61Z" style="fill: #3f3d55; isolation: isolate; opacity: .1;"/>
  <path d="M115.33,184.18H59.66c9.05-14.16,18.94-27.78,29.61-40.76,8.27-10.16,17-20.06,26.06-29.6v70.36Z" style="fill: #3f3d55; isolation: isolate; opacity: .1;"/>
  <path d="M115.33,188.46v145.46H14.16c0-.42,.07-.85,.1-1.27,.09-1.15,.18-2.3,.28-3.44,.11-1.34,.23-2.69,.36-4s.27-2.91,.42-4.36,.29-2.92,.46-4.37,.32-2.9,.5-4.34,.34-2.9,.53-4.34c.15-1.2,.31-2.39,.47-3.59,.23-1.69,.47-3.39,.73-5.07,0-.25,.07-.51,.11-.75,1.83-12.3,4.31-24.49,7.45-36.52,3.28-12.62,7.48-24.99,12.55-37,5.39-12.57,11.7-24.72,18.88-36.36l58.33-.05Z" style="fill: #3f3d55; isolation: isolate; opacity: .1;"/>
  <path d="M139.56,338.19v138.34h216.77v-138.34H139.56Zm0,142.61v118.8c1.24,.26,2.47,.51,3.69,.72,1.66,.32,3.31,.61,5,.86,.32,.05,.65,.1,1,.13,.66,.11,1.34,.2,2,.29,1.67,.23,3.33,.42,5,.57,.79,.08,1.59,.15,2.39,.21l1.93,.15h0c1.05,.08,2.09,.14,3.12,.17,.64,0,1.28,.06,1.94,.08h7.13c.86,0,1.72,0,2.57-.08h.06c.59,0,1.19,0,1.79-.08,.17,0,.33,0,.5,0,.5,0,1,0,1.48-.07h.35l3.35-.26c1.1-.1,2.21-.23,3.33-.35l2.28-.27c9.28-1.3,18.45-3.25,27.45-5.84,20.22-5.64,40-13.53,60.21-19.31,26.13-7.45,55-11.11,80.25-2v-93.72H139.56ZM356.33,184.18V0c-23.73-.26-47.4,2.52-70.43,8.26-54.89,13.79-104.14,43.7-146.34,81.9v94h10.88v4.27h-10.88v145.48h216.77V188.45H195.11v-4.27h161.22Zm278.43-62.21c-13.58-.48-27.08-4.78-39.29-11.42-23.35-12.7-42-32.31-62.84-48.86C489.33,27.22,435.63,6.42,380.54,1.26V184.18h309.45l.77-.81-56-61.4Zm28.19-5l29.89,32.8v-41.4c-10.01,1.24-18.78,4.19-29.85,8.56l-.04,.04Zm29.89,512.13v-148.3h-63.69c-.17-.63-.34-1.27-.54-1.91,.19,.64,.35,1.28,.53,1.91h-248.56v107.25c2.36,1.75,4.69,3.59,7,5.46h0c2.49,2,4.95,4.11,7.42,6.18l2.49,2.06c1.19,1,2.39,2,3.6,2.94,2.4,1.95,4.82,3.87,7.27,5.76,1.21,1,2.45,1.9,3.68,2.84,19.53,14.93,40.13,28.4,61.63,40.31,4.82,2.67,9.68,5.27,14.59,7.81,3.27,1.67,6.56,3.33,9.86,4.94,4.96,2.42,9.96,4.75,15,7h0c46.47,20.86,95.6,35.17,146,42.53,11.19,1.65,22.43,2.95,33.71,3.9v-90.69h.01ZM380.58,188.45v145.47h312.3V188.45H380.58Zm0,149.74v138.34h312.3v-138.34H380.58ZM717.12,108.19v46.18l38.15-41.86c-12.64-2.04-25.36-3.5-38.15-4.37v.05Zm0,230.05v138.29h303.75v-138.34l-303.75,.05Zm302.64,301.84l1.07-159.28h-303.71v240.57c19.57,.82,39.16,.59,58.7-.7h.34c9.33-.59,18.62-1.44,27.87-2.56h.21c49.33-5.74,97.57-18.61,143.2-38.21m132-318.93c-1.14-2.69-2.33-5.36-3.54-8-2.26-5-4.65-9.86-7.11-14.72h-23.7v138.28h59.92c-.03-39.16-9.94-79.16-25.54-115.61l-.03,.05Zm-34.35,119.88v137c16.88-16.18,31.14-34.69,41.41-55.85,12.35-25.48,18-53.07,18.46-81.17l-59.87,.02Zm0-182.92v36h21.48c-6.5-12.39-13.66-24.43-21.45-36.05l-.03,.05Zm-206-162.6c-1.58-.6-3.16-1.21-4.75-1.8-16.77-6.19-33.91-11.34-51.31-15.42l-58.38,64.07h0l-1.12,1.19,.75,.82h207.78c-28.94-19.92-60.14-36.34-92.94-48.91l-.03,.05Zm99.06,53.17h-216.77l-4.26,3.9v141.52h303.79v-68.55c-24.1-29.14-51.91-55-82.73-76.92l-.03,.05Z" style="fill: #3f3d55; isolation: isolate; opacity: .1;"/>
  <path d="M115.33,261.83v72.09H14.16c0-.42,.07-.85,.1-1.27,.09-1.15,.18-2.3,.28-3.44,.11-1.34,.23-2.69,.36-4s.27-2.91,.42-4.36,.29-2.92,.46-4.37,.32-2.9,.5-4.34,.34-2.9,.53-4.34c.15-1.2,.31-2.39,.47-3.59,.23-1.69,.47-3.39,.73-5.07,0-.25,.07-.51,.11-.75,1.83-12.3,4.31-24.49,7.45-36.52l89.76-.04Z" style="fill: #206ba8; isolation: isolate; opacity: .1;"/>
  <path d="M13.84,338.2H115.33v138.33H21.27c-.25,1.42-.49,2.85-.75,4.28H115.33v111.56c-.17-.05-.32-.11-.48-.17-2.68-1.06-5.34-2.18-8-3.38l-1.7-.77c-2.67-1.26-5.33-2.59-8-4-.93-.49-1.86-1-2.78-1.52-14.8-8.29-28.25-18.8-39.88-31.16-.34-.33-.66-.68-1-1-1.62-1.76-3.21-3.54-4.75-5.36l-1.7-2c-1.82-2.23-3.58-4.52-5.29-6.84-.25-.34-.49-.68-.75-1-6.95-9.64-12.73-20.08-17.2-31.1-.14-.33-.26-.69-.39-1-1.37-3.53-2.59-7.1-3.65-10.7-.46-1.51-.9-3-1.28-4.57-.14-.46-.26-.91-.37-1.36-5.68-22.17-6.35-45.2-6.35-68.07v-8c0-9.25,.11-18.56,.27-27.86,0-2.41,.1-4.81,.15-7.23,.14-6.14,.34-12.28,.6-18.42,.06-1.71,.14-3.41,.23-5.11,0-.98,.05-1.96,.15-2.94,.24-3.56,.44-7.09,.68-10.61Z" style="fill: #206ba8; isolation: isolate; opacity: .1;"/>
  <polygon points="215.87 209.28 215.87 333.92 139.56 333.92 139.56 209.28 150.44 209.28 150.44 167.08 195.1 167.08 195.1 209.28 215.87 209.28" style="fill: #206ba8; isolation: isolate; opacity: .1;"/>
  <rect x="139.57" y="338.19" width="76.3" height="138.33" style="fill: #206ba8; isolation: isolate; opacity: .1;"/>
  <path d="M139.56,480.81h76.31v115c-9,2.59-18.17,4.53-27.45,5.83l-2.28,.28c-1.12,.13-2.23,.24-3.33,.35s-2.24,.19-3.35,.26h-.35c-.48,0-1,.06-1.47,.07h-.51c-.6,0-1.2,.06-1.8,.08h0c-.85,.05-1.7,.06-2.57,.07h-7.08l-1.93-.07c-1,0-2.08-.11-3.12-.18h0l-1.92-.14-2.39-.22c-1.68-.15-3.35-.34-5-.57l-2-.28-1-.14c-1.67-.26-3.32-.54-5-.86-1.23-.21-2.45-.47-3.69-.72l-.07-118.76Z" style="fill: #206ba8; isolation: isolate; opacity: .1;"/>
  <rect x="629.96" y="194.56" width="62.92" height="139.35" style="fill: #206ba8; isolation: isolate; opacity: .1;"/>
  <polygon points="692.89 338.19 692.89 476.53 380.58 476.53 380.58 416.86 546.93 416.86 546.93 452.06 629.96 452.06 629.96 338.19 692.89 338.19" style="fill: #206ba8; isolation: isolate; opacity: .1;"/>
  <path d="M693.88,629.13h-1v90.75c-11.27-.95-22.5-2.25-33.7-3.89-50.42-7.38-99.58-21.73-146.06-42.62-13.42-6.04-26.57-12.63-39.44-19.78-21.5-11.91-42.11-25.39-61.64-40.31-4.91-3.76-9.75-7.61-14.53-11.54-3.31-2.73-6.6-5.53-9.93-8.25-2.31-1.87-4.64-3.71-7-5.47v-107.21h248.55c-.17-.64-.34-1.28-.52-1.91,.19,.63,.37,1.27,.54,1.91h63.73v148.26c.34,.01,.67,.04,1,.06Z" style="fill: #206ba8; isolation: isolate; opacity: .1;"/>
  <path d="M856.98,184.18h-41v-12.74h18.38v-37.95c1.59,.58,3.18,1.18,4.76,1.79v36.16h17.86v12.74Z" style="fill: #206ba8; isolation: isolate; opacity: .1;"/>
  <path d="M955.76,333.92h-201.28l.07,.05-.09-.05h-37.34V194.57h10.58v103h48.35v-61h39.94v-48.11h41v48.15h39.94v61h58.83v36.31Z" style="fill: #206ba8; isolation: isolate; opacity: .1;"/>
  <path d="M717.12,338.19v138.34h238.64v-138.34h-238.64Zm303.42,301.18l.33-109.5h-65.11v-49h-238.64v240.5c19.57,.82,39.16,.59,58.7-.7h.34c9.33-.59,18.62-1.44,27.87-2.56h.21c49.33-5.74,97.57-18.61,143.2-38.21" style="fill: #206ba8; isolation: isolate; opacity: .1;"/>
  <path d="M1049.33,480.81h55.67c-.49,28.09-6.13,55.68-18.47,81.16-10.27,21.17-24.54,39.68-41.4,55.85v-88h4.2v-49.01Z" style="fill: #206ba8; isolation: isolate; opacity: .1;"/>
  <path d="M1105.03,476.53h-55.7v-115.61h30.14c15.6,36.45,25.51,76.45,25.56,115.61Z" style="fill: #206ba8; isolation: isolate; opacity: .1;"/>
  <rect x="659.18" y="233.3" width="33.71" height="43.69" style="fill: #404047; isolation: isolate; opacity: .1;"/>
  <rect x="659.18" y="323.86" width="33.71" height="10.06" style="fill: #404047; isolation: isolate; opacity: .1;"/>
  <rect x="659.18" y="338.19" width="33.71" height="29.35" style="fill: #404047; isolation: isolate; opacity: .1;"/>
  <rect x="659.18" y="414.42" width="33.71" height="43.69" style="fill: #404047; isolation: isolate; opacity: .1;"/>
  <rect x="659.18" y="504.98" width="33.71" height="43.69" style="fill: #404047; isolation: isolate; opacity: .1;"/>
  <path d="M692.88,629.07c.34,0,.67,0,1,.06h-1v10.15h-33.7v-43.74h33.7v33.53Z" style="fill: #404047; isolation: isolate; opacity: .1;"/>
  <path d="M692.88,686.08v33.75c-11.27-.95-22.5-2.25-33.7-3.89v-29.86h33.7Z" style="fill: #404047; isolation: isolate; opacity: .1;"/>
  <rect x="380.58" y="473.32" width="144.47" height="3.21" style="fill: #404047; isolation: isolate; opacity: .1;"/>
  <rect x="380.58" y="480.8" width="144.47" height="12.3" style="fill: #404047; isolation: isolate; opacity: .1;"/>
  <rect x="380.58" y="533.42" width="144.47" height="19.78" style="fill: #404047; isolation: isolate; opacity: .1;"/>
  <path d="M525.04,593.52v19.78h-113c-4.91-3.75-9.75-7.59-14.54-11.54-3.31-2.73-6.59-5.53-9.93-8.24h137.47Z" style="fill: #404047; isolation: isolate; opacity: .1;"/>
  <path d="M525.04,653.61v19.76h-11.93c-13.41-6.05-26.55-12.64-39.43-19.79l51.36,.03Z" style="fill: #404047; isolation: isolate; opacity: .1;"/>
  <rect x="775.83" y="351.6" width="28.44" height="28.44" style="fill: #404047; isolation: isolate; opacity: .1;"/>
  <rect x="160.05" y="219.09" width="28.44" height="28.44" style="fill: #404047; isolation: isolate; opacity: .1;"/>
  <rect x="160.05" y="285.15" width="28.44" height="28.44" style="fill: #404047; isolation: isolate; opacity: .1;"/>
  <rect x="160.05" y="351.21" width="28.44" height="28.44" style="fill: #404047; isolation: isolate; opacity: .1;"/>
  <rect x="160.05" y="417.26" width="28.44" height="28.44" style="fill: #404047; isolation: isolate; opacity: .1;"/>
  <rect x="160.05" y="483.32" width="28.44" height="28.44" style="fill: #404047; isolation: isolate; opacity: .1;"/>
  <rect x="160.05" y="549.38" width="28.44" height="28.44" style="fill: #404047; isolation: isolate; opacity: .1;"/>
  <rect x="884.4" y="351.6" width="28.44" height="28.44" style="fill: #404047; isolation: isolate; opacity: .1;"/>
  <rect x="775.83" y="421.75" width="28.44" height="28.44" style="fill: #404047; isolation: isolate; opacity: .1;"/>
  <rect x="884.4" y="421.75" width="28.44" height="28.44" style="fill: #404047; isolation: isolate; opacity: .1;"/>
  <rect x="775.83" y="491.89" width="28.44" height="28.44" style="fill: #404047; isolation: isolate; opacity: .1;"/>
  <rect x="884.4" y="491.89" width="28.44" height="28.44" style="fill: #404047; isolation: isolate; opacity: .1;"/>
  <rect x="775.83" y="562.04" width="28.44" height="28.44" style="fill: #404047; isolation: isolate; opacity: .1;"/>
  <rect x="884.4" y="562.04" width="28.44" height="28.44" style="fill: #404047; isolation: isolate; opacity: .1;"/>
  <rect x="775.83" y="632.19" width="28.44" height="28.44" style="fill: #404047; isolation: isolate; opacity: .1;"/>
  <rect x="884.4" y="632.19" width="28.44" height="28.44" style="fill: #404047; isolation: isolate; opacity: .1;"/>
  <polygon points="775.83 720.67 775.83 702.33 804.26 702.33 804.26 718.06 775.83 720.67" style="fill: #404047; isolation: isolate; opacity: .1;"/>
  <path d="M18,298.37v16.27H115.33v-16.27H18Zm9.7,15.25h-7.94v-14.25h8l-.06,14.25Zm9.69,0h-8v-14.25h8v14.25Zm9.67,0h-8v-14.25h8v14.25Zm9.69,0h-7.99v-14.25h8v14.25Zm9.67,0h-8v-14.25h8v14.25Zm9.69,0h-8v-14.25h8v14.25Zm9.69,0h-8v-14.25h8v14.25Zm9.68,0h-8v-14.25h8v14.25Zm9.68,0h-8v-14.25h8v14.25Zm9.68,0h-8v-14.25h8v14.25Z" style="fill: #404047; isolation: isolate; opacity: .1;"/>
  <path d="M18,345.71v16.27H115.33v-16.27H18Zm9.7,15.24h-7.94v-14.21h8l-.06,14.21Zm9.69,0h-8v-14.21h8v14.21Zm9.67,0h-8v-14.21h8v14.21Zm9.69,0h-7.99v-14.21h8v14.21Zm9.67,0h-8v-14.21h8v14.21Zm9.69,0h-8v-14.21h8v14.21Zm9.69,0h-8v-14.21h8v14.21Zm9.68,0h-8v-14.21h8v14.21Zm9.68,0h-8v-14.21h8v14.21Zm9.68,0h-8v-14.21h8v14.21Z" style="fill: #404047; isolation: isolate; opacity: .1;"/>
  <path d="M18,393.07v16.3H115.33v-16.3H18Zm9.7,15.24h-7.94v-14.22h8l-.06,14.22Zm9.69,0h-8v-14.22h8v14.22Zm9.67,0h-8v-14.22h8v14.22Zm9.69,0h-7.99v-14.22h8v14.22Zm9.67,0h-8v-14.22h8v14.22Zm9.69,0h-8v-14.22h8v14.22Zm9.69,0h-8v-14.22h8v14.22Zm9.68,0h-8v-14.22h8v14.22Zm9.68,0h-8v-14.22h8v14.22Zm9.68,0h-8v-14.22h8v14.22Z" style="fill: #404047; isolation: isolate; opacity: .1;"/>
  <path d="M18,440.43v16.25H115.33v-16.25H18Zm9.7,15.24h-7.94v-14.23h8l-.06,14.23Zm9.69,0h-8v-14.23h8v14.23Zm9.67,0h-8v-14.23h8v14.23Zm9.69,0h-7.99v-14.23h8v14.23Zm9.67,0h-8v-14.23h8v14.23Zm9.69,0h-8v-14.23h8v14.23Zm9.69,0h-8v-14.23h8v14.23Zm9.68,0h-8v-14.23h8v14.23Zm9.68,0h-8v-14.23h8v14.23Zm9.68,0h-8v-14.23h8v14.23Z" style="fill: #404047; isolation: isolate; opacity: .1;"/>
  <path d="M18.42,487.78c.39,1.53,.83,3.06,1.29,4.57v-3.55h8v14.22h-4.28c.13,.33,.26,.69,.39,1H115.33v-16.24H18.42Zm19,15.24h-8v-14.22h8v14.22Zm9.67,0h-8v-14.22h8v14.22Zm9.69,0h-8.02v-14.22h8l.02,14.22Zm9.68,0h-8v-14.22h8v14.22Zm9.69,0h-8v-14.22h8v14.22Zm9.69,0h-8v-14.22h8v14.22Zm9.68,0h-8v-14.22h8v14.22Zm9.68,0h-8v-14.22h8v14.22Zm9.68,0h-8v-14.22h8v14.22Z" style="fill: #404047; isolation: isolate; opacity: .1;"/>
  <path d="M41.02,535.14c.25,.32,.49,.68,.75,1h5.29v6.83c.57,.68,1.13,1.36,1.71,2v-8.87h8v14.27h-3.24c.32,.33,.63,.68,1,1h60.83v-16.23H41.02Zm25.41,15.23h-8v-14.21h8v14.21Zm9.69,0h-8v-14.21h8v14.21Zm9.69,0h-8v-14.21h8v14.21Zm9.68,0h-8v-14.21h8v14.21Zm9.68,0h-8v-14.21h8v14.21Zm9.68,0h-8v-14.21h8v14.21Z" style="fill: #404047; isolation: isolate; opacity: .1;"/>
  <path d="M94.41,582.49c.91,.52,1.84,1,2.78,1.52v-.5h8v4.5l1.7,.79v-5.29h8v8.65c.15,.08,.31,.14,.48,.18v-9.85h-20.96Z" style="fill: #404047; isolation: isolate; opacity: .1;"/>
  <path d="M754.48,333.92h0Zm-61.6,295.14h0Zm-64.27-150.17c.19,.64,.35,1.28,.53,1.91h0c-.16-.63-.33-1.27-.53-1.91Zm125.87-145h0ZM150.48,184.15v4.27h44.67v-4.27h-44.67Zm542.4,444.91h0Zm-64.27-150.17c.19,.64,.35,1.28,.53,1.91h0c-.16-.63-.33-1.27-.53-1.91Zm125.87-145h0Zm-61.6,295.14h0Zm-64.27-150.14c.19,.64,.35,1.28,.53,1.91h0c-.16-.63-.33-1.27-.53-1.91Z" style="fill: #404047; isolation: isolate; opacity: .1;"/>
  <path d="M461.6,379.67s-3.94-.55-3.94-6.29-2.82-16.46-2.82-16.46h0s-2.44-18.67-5.81-21.63-7.7-20.34-7.7-20.34c0,0-.74-9.43-2.25-11.46s-3.55-7-6.56-14.09-15.56-12-15.56-12c0,0-22.69-13.16-29.12-17.45h0c-.58-.35-1.13-.76-1.63-1.23-1.12-1.47-6-1.5-6-1.5-.51-3.22-1-6.92-1.16-10.27,0-.36,0-.72-.05-1.08,7.17-4.24,12.57-10.92,15.21-18.82,.12-.38,.22-.78,.33-1.16,.87-.29,1.58-.93,1.95-1.76,.58-1.29,.59-2.8,1.31-4,.84-1.42,2.44-2.18,3.7-3.25,3.18-2.7,4-7.25,3.85-11.39-.1-3.35-.64-6.73-.43-10.06l.06-.84c.06-.5,.13-1,.22-1.48,.49-2.48,1.56-4.82,2.16-7.28s.66-5.23-.74-7.35c-2.05-3.11-6.32-3.73-10.07-4.05-4.25-.36-8.05,.11-10.77-3.42-1.27-1.84-2.71-3.57-4.28-5.17-.56-.52-6-3.84-6-4.06-5.31-2.46-11.33-2.92-16.95-1.3-2.82,.82-5.48,2.16-8.34,2.83-6.17,1.46-13.27-.12-18.51,3.41-2.92,2-4.67,5.18-6.31,8.28-1.33,2.55-2.69,5.1-4.06,7.65-2.21,4.19-4.46,8.45-5.39,13.09-.2,1.01-.32,2.03-.36,3.06h0v1.63c0,.35,0,.69,.06,1s.05,.41,.08,.62,.08,.68,.14,1,.18,.88,.3,1.32c.05,.19,.12,.37,.18,.55,.1,.34,.22,.67,.35,1,.07,.17,.14,.35,.22,.52,.15,.35,.33,.69,.51,1,.08,.14,.14,.27,.22,.4,.28,.47,.59,.91,.92,1.34,2.14,2.67,5.29,4.37,7.62,6.87v1.12c.25,11.32,6.08,21.78,15.58,27.95,0,.38,.05,.77,.07,1.15,.2,2.97,.16,5.95-.11,8.91-.82-.97-2.05-1.52-3.32-1.48-.43-.02-.86,.02-1.28,.11l-.09-.07h0v.09c-2.2,.54-4.91,2.83-7.5,9.34,0,0-7.88,8.88-13.88,8.51s-21.19,9.24-21.19,9.24c0,0-14.82,9.62-18,19.42-1.78,5.56-3.91,10.99-6.38,16.28l-18.32,37.75h0l-3.38,29.95s1.87,13.32,1.5,15.35,7.69,20.34,7.69,20.34c0,0,26.63,46.79,37.51,49.19l.78-.55c.47,.24,.96,.43,1.47,.55l2.24-1.58c.13,1.76,.08,3.53-.17,5.28-1.5,4.62,.56,34.77,3.18,40.68s1.69,83.4,1.69,83.4l-.37,6.84s0,.22,.09,.6l-.09,1.62,.27,.14c.28,2.17,.19,4.37-.27,6.51-.94,3-1.32,11.48-1.32,11.48,0,0-7.49,47.88-3.94,57.5s6.57,20.16,6.57,20.16c0,0,3.75,12,.18,14.05s-13.72,5.49-11.63,10.49c1.9,4.62,9.11,17,10.18,18.81l-.09,.95-1.47,15.93c.24,2.1,.81,4.16,1.69,6.08,1.61,3.47,4.74,7.07,10.69,6.68,1-.07,2.16-.19,3.28-.34,10.89-1.46,24.3-6.32,24.3-6.32-.7-.44-1.33-.97-1.9-1.57h0c-1.08-1.05-1.69-2.49-1.67-4,.16-2.9-5.27-16.72-6.62-20.12-.21-.49-.32-.77-.32-.77,0,0,12.38-12.94,10.32-24.41,0,0-13.7-8-9.19-12.39s12.57-17,12.57-17c0,0,.37-47.15,0-54.19-.39-4.89-.15-9.8,.69-14.63,.15-.73,.33-1.44,.52-2.14,6.24,.93,12.53,1.41,18.84,1.43,2.3,0,4.64,0,7-.14,0,.67,.03,1.39,.09,2.16,.52,11.68,1.49,32.16,2.28,39.77,1.12,10.91,7.31,40.31,7.31,40.31,0,0-11.81,7.58,2.06,26.26,0,0,0,6.77-.92,7.75h0c-.98,3.2-1.77,6.46-2.37,9.76-.58,3.52-.82,7.08,.12,8.93,2.25,4.42,15.75,4.06,15.75,4.06h0l.33-.06c5.15-.53,10.29,1.02,14.29,4.31,5.13,4.12,24.6,2.31,35.14,1,4.13-.52,6.89-1,6.89-1,.13-.47,.18-.96,.14-1.44h0c-.11-2.59-2.14-8.27-15.9-13.34,0,0-12.94-8.7-12.76-16.28h-1.77c1.09-.06,1.79,0,1.79,0,0,0-5.07-18.5-3-20s-4.13-22-4.13-22c0,0-3.55-34.4-3.74-36.81,0-2.07,.32-4.12,.93-6.1l-.93-18.86s-.18-6.27,0-8.31c-.03-1.77-.17-3.54-.43-5.29-.09-.7-.18-1.43-.28-2.15,4.85-1.23,8-2.37,8-2.37l-.56-65.65c4.12-8,4.88-25.55,4.86-38,0-8-.36-13.92-.36-13.92l5.63-9.19s1.3-11-.76-13.41c-.91-1.09-.5-2.22,.25-3.15,.39-.31,.8-.59,1.23-.84,0,0-.06-.09-.13-.22,.39-.33,.81-.63,1.25-.89,0,0-2-3.1-.21-4.41,1.68,1.14,3.18,2,4.32,2.7-.08,.73-.16,1.15-.16,1.15l.48-1c1.1,.62,1.77,1,1.77,1,0,0,8.82-17.57,8.63-20.16s6-13.5,6-13.5c0,0,.75-5.73,4.13-8.13s2.62-19.79,2.62-19.79c0,0,.94-9.06,3.19-12.76s-2.05-8.69-2.05-8.69Zm-168.76-7.71l.17,4.19c-1-1.61-1.72-2.77-1.72-2.77l1.55-1.42Z" style="fill: url(#Dégradé_sans_nom);"/>
  <path d="M439.56,455.11l-2.16,9.2s-17.3-8.83-20.42-20.05,5.22-15.48,5.22-15.48l16.12,6.83,1.24,19.5Z" style="fill: #fff;"/>
  <path d="M439.56,455.11l-2.16,9.2s-17.3-8.83-20.42-20.05,5.22-15.48,5.22-15.48l16.12,6.83,1.24,19.5Z" style="isolation: isolate; opacity: .1;"/>
  <path d="M342.47,768.22s-16,5.88-27,6.62c-5.84,.39-8.91-3.19-10.49-6.64-.86-1.92-1.42-3.96-1.65-6.05l1.43-15.85,.76-8.44,23.37-6.07,3.31,10.12,.31,.77c1.33,3.38,6.66,17.13,6.5,20-.01,1.48,.58,2.91,1.64,3.95,.54,.61,1.15,1.14,1.82,1.59Z" style="fill: #fff;"/>
  <path d="M451.76,760.16c.04,.48,0,.97-.14,1.43,0,0-34.22,5.71-41.22,0-3.99-3.37-9.22-4.91-14.4-4.22,0,0-13.24,.36-15.45-4-.92-1.83-.68-5.38-.11-8.88,.58-3.28,1.36-6.52,2.32-9.71l.53-.42,3.15-2.53,36.88-1.09h.28c-.18,7.54,12.52,16.19,12.52,16.19,13.49,5,15.48,10.65,15.64,13.23Z" style="fill: #fff;"/>
  <path d="M451.76,760.16c.04,.48-.02,.97-.15,1.43,0,0-34.21,5.71-41.21,0-3.99-3.37-9.21-4.9-14.39-4.22,0,0-13.25,.36-15.45-4-.92-1.84-.69-5.38-.12-8.88,5.1,.51,13.15,1.78,16.31,4.81,4.78,4.61,12.88,9.21,17.85,9.57,3.89,.25,27.16,.99,37.16,1.29Z" style="isolation: isolate; opacity: .1;"/>
  <path d="M342.47,768.22s-16,5.88-27,6.62c-5.84,.39-8.91-3.19-10.48-6.65,4.07,1.37,9.72,2.81,12.69,1.49,3.52-1.56,16-2.57,23-3,.53,.58,1.13,1.1,1.79,1.54Z" style="isolation: isolate; opacity: .1;"/>
  <path d="M366.21,294.37c-13.2-5.13-30.18-22.08-25.94-30,.94-2,1.5-4.16,1.65-6.36,.27-2.99,.31-6,.12-9-.3-4.91-.89-9.8-1.77-14.64,0,0,41.21,.93,38.81,7-.7,1.78-.81,4.87-.62,8.33s.69,7.37,1.21,10.68c.72,4.54,1.44,8,1.44,8,0,0-2.52,3.53-4,3.72s8.04,29.58-10.9,22.27Z" style="fill: #cf6f80;"/>
  <path d="M332.48,742.68l-.31,.34c-12.32-14.9-27.22,3.67-27.22,3.67l-.22-.39,.76-8.44,23.37-6.07,3.31,10.12,.31,.77Z" style="isolation: isolate; opacity: .1;"/>
  <path d="M423.61,731.79s-9-.19-13.8,4.05-28,.92-27,0c.3-.46,.47-.98,.52-1.52l3.15-2.53,36.88-1.09c.14,.67,.25,1.09,.25,1.09Z" style="isolation: isolate; opacity: .1;"/>
  <path d="M347.81,614.78c-.67,1.66-1.18,3.38-1.52,5.13-.83,4.81-1.07,9.7-.69,14.56,.37,7,0,53.91,0,53.91,0,0-7.91,12.51-12.32,16.92s9,12.33,9,12.33c2,11.4-10.12,24.28-10.12,24.28-12.32-14.9-27.22,3.68-27.22,3.68,0,0-8.1-14-10.12-19s7.91-8.46,11.4-10.49-.17-14-.17-14c0,0-2.95-10.49-6.45-20.06s3.86-57.21,3.86-57.21c0,0,.38-8.46,1.29-11.41,.46-2.13,.55-4.32,.27-6.48-.06-.73-.13-1.34-.18-1.75s-.09-.6-.09-.6l.14-.24,5-9.32s40.32,13.88,37.92,19.75Z" style="fill: #024f5f;"/>
  <path d="M423.61,730.69s-9-.19-13.8,4-28,.92-27,0,.92-7.73,.92-7.73c-13.61-18.58-2-26.12-2-26.12,0,0-6.08-29.25-7.18-40.1-.77-7.58-1.72-27.95-2.23-39.58-.22-5-.35-8.44-.35-8.44l11.12-2.24,1.43-.29,26.82-5.38s.74,5,1.24,9.09c.25,1.75,.39,3.51,.42,5.27-.18,2,0,8.26,0,8.26l.91,18.77c-.59,1.97-.9,4.01-.91,6.07,.18,2.39,3.67,36.61,3.67,36.61,0,0,6.07,20.42,4,21.89s2.94,19.92,2.94,19.92Z" style="fill: #024f5f;"/>
  <path d="M379.08,241.37c-.7,1.78-.81,4.87-.62,8.33-11.26,6.78-25.42,6.52-36.42-.68-.3-4.91-.89-9.81-1.77-14.65,0,0,41.21,.91,38.81,7Z" style="isolation: isolate; opacity: .1;"/>
  <path d="M395.01,219.27c0,3.6-.56,7.19-1.68,10.61-5.87,17.97-25.19,27.77-43.15,21.91-13.79-4.5-23.24-17.2-23.59-31.7v-.82c-.32-18.9,14.73-34.48,33.63-34.8,18.9-.32,34.48,14.73,34.8,33.63,0,.39,0,.78,0,1.17h-.01Z" style="fill: #cf6f80;"/>
  <path d="M366.21,294.37c-13.2-5.13-30.18-22.08-25.94-30,.94-2,1.5-4.16,1.65-6.36l18.07,14.85,11.18,9.17,8.5-21.64c.72,4.54,1.44,8,1.44,8,0,0-2.52,3.53-4,3.72s8.04,29.57-10.9,22.26Z" style="isolation: isolate; opacity: .1;"/>
  <polygon points="412.94 360 397.85 613.5 378.17 614.79 327.21 467.8 335.57 293.29 337.33 256.42 359.99 275.03 371.18 284.2 379.93 261.93 396.2 276.11 412.94 360" style="fill: #024f5f;"/>
  <path d="M347.81,614.78c-.67,1.66-1.18,3.38-1.52,5.13-14.32-2.21-28.23-6.56-41.26-12.89l-.27-.14,.09-1.61,.05-.84,5-9.32s40.31,13.8,37.91,19.67Z" style="isolation: isolate; opacity: .1;"/>
  <path d="M383.32,619.95c-3.66,.62-7.35,1.04-11.06,1.26-.22-5-.35-8.44-.35-8.44l11.12-2.24,.29,9.42Z" style="isolation: isolate; opacity: .1;"/>
  <path d="M412.52,613.95c-7.11,1.85-18.09,3.93-27.92,2.63l-.14-6.34,26.82-5.38s.74,4.95,1.24,9.09Z" style="isolation: isolate; opacity: .1;"/>
  <path d="M384.42,617.74c-41,7-78.55-13.07-78.55-13.07l.36-6.8s.93-77.09-1.65-83-4.59-35.88-3.13-40.48-5.33-73.58-5.33-73.58l-1.1-28-40.26-16.31,18-37.52c2.43-5.26,4.52-10.67,6.26-16.2,3.13-9.74,17.66-19.31,17.66-19.31,0,0,14.9-9.56,20.79-9.2s13.61-8.46,13.61-8.46c5.7-14.53,10.86-7.95,10.86-7.95,0,.69,0,0-.28,2.15-2,15.95,32.34,66.35,32.83,67.24h0l3.27,79.66,3.31,100.81,3.35,110.02Z" style="isolation: isolate; opacity: .1;"/>
  <path d="M383.32,617.74c-41,7-78.56-13.07-78.56-13.07l.37-6.8s.93-77.09-1.66-83-4.59-35.88-3.12-40.48-5.33-73.58-5.33-73.58l-1.11-28-40.28-16.37,18-37.52c2.43-5.26,4.52-10.67,6.26-16.2,3.12-9.74,17.66-19.31,17.66-19.31,0,0,14.9-9.56,20.78-9.2s13.61-8.46,13.61-8.46c5.71-14.53,12-7.95,12-7.95,0,.69-.6,1-.28,2.15,4.4,15.47,31.24,66.35,31.73,67.24h0l3.31,79.66,3.31,100.81,3.31,110.08Z" style="fill: #fff;"/>
  <path d="M372.27,329.46c-4.41-1.84-27.77-28.51-27.77-28.51v-6.07c-.85-2-5.9-.78-10,.62l1.76-36.87,2,1.66c4.38,15.46,33.5,68.28,34.01,69.17Z" style="isolation: isolate; opacity: .1;"/>
  <path d="M373.38,327.25c-4.42-1.84-27.78-28.51-27.78-28.51v-6.07c-.85-2-5.9-.78-10,.62l1.77-36.87,2,1.66c4.39,15.46,33.52,68.29,34.01,69.17Z" style="fill: #fff;"/>
  <path d="M305.87,460.26c.55,0,28.51-2.94,28.51-2.94,0,0,16.93,33.29,15.82,41.39s-3.12,15.27-9.93,14-36.65,1-36.65,1l2.25-53.45Z" style="isolation: isolate; opacity: .1;"/>
  <path d="M304.76,458.05c.55,0,28.51-2.94,28.51-2.94,0,0,16.92,33.3,15.82,41.39s-3.13,15.27-9.93,14-36.65,1-36.65,1l2.25-53.45Z" style="fill: #fff;"/>
  <path d="M325.83,442.42s25.66,13.79,26.21,18-13.06-1.84-16-2.57c-1.94-.47-3.9-.77-5.89-.92l-19.61,.53,15.29-15.04Z" style="fill: #cf6f80;"/>
  <circle cx="365.11" cy="328.48" r="2.7" style="isolation: isolate; opacity: .1;"/>
  <circle cx="365.11" cy="327.38" r="2.7" style="fill: #3f3d56;"/>
  <circle cx="370.08" cy="445.36" r="2.7" style="isolation: isolate; opacity: .1;"/>
  <circle cx="370.08" cy="444.25" r="2.7" style="fill: #3f3d56;"/>
  <circle cx="367.8" cy="386.92" r="2.7" style="isolation: isolate; opacity: .1;"/>
  <circle cx="367.8" cy="385.82" r="2.7" style="fill: #3f3d56;"/>
  <path d="M430.04,456.37s1.84,2.76,0,4.05,.18,4.41,.18,4.41c0,0-4.59,2.69-2.57,5.11s.74,13.35,.74,13.35l-5.52,9.14s.33,5.89,.35,13.85c0,12.42-.73,29.88-4.77,37.84l.56,65.31s-19.33,7.06-35.51,4.91l-2.4-104.8s3.5-59.43,4.79-70.83c.75-5.92,1.06-11.89,.92-17.85,0,0-.55-17.84-2.4-26.12,0,0-2-35.87-2.2-45.8-.09-4.75,.16-18.61,.44-31.79,.31-14.41,.66-28,.66-28l-3.65-28.88s3.65-.37,4.75,1.1c.49,.46,1.03,.87,1.6,1.23h0c6.3,4.26,28.56,17.36,28.56,17.36,0,0,12.32,4.9,15.27,11.92s5,12,6.43,14,2.21,11.4,2.21,11.4c0,0,4.24,17.3,7.55,20.23s5.73,21.57,5.73,21.57l-29.25,23s-2.57,38.26-3.12,39.74,10.65,34.55,10.65,34.55Z" style="fill: #fff;"/>
  <path d="M431.15,456.37s1.83,2.76,0,4.05,.17,4.41,.17,4.41c0,0-4.56,2.72-2.56,5.14s.74,13.35,.74,13.35l-5.52,9.14s.33,5.89,.36,13.85c0,12.42-.73,29.88-4.77,37.84l.55,65.31s-19.36,7.06-35.52,4.91l-2.39-104.8s3.5-59.43,4.79-70.83c.76-5.92,1.06-11.89,.91-17.85,0,0-.55-17.84-2.39-26.12,0,0-2-35.87-2.21-45.8-.09-4.75,.17-18.61,.44-31.79,.31-14.41,.66-28,.66-28l-4.82-29.27s4.82,0,5.93,1.49c.49,.47,1.02,.88,1.6,1.23h0c6.3,4.26,28.57,17.36,28.57,17.36,0,0,12.31,4.9,15.26,11.92s5,12,6.44,14,2.2,11.4,2.2,11.4c0,0,4.24,17.3,7.55,20.23s5.7,21.53,5.7,21.53l-29.25,23s-2.57,38.26-3.13,39.74,10.69,34.56,10.69,34.56Z" style="fill: #fff;"/>
  <path d="M396.12,297.67l2.64,7.7-13.9,14c.31-14.4,.66-28,.66-28l-4.82-29.27s4.82,0,5.93,1.49c.49,.46,1.02,.87,1.6,1.22h0l11.82,34.1-3.93-1.24Z" style="isolation: isolate; opacity: .1;"/>
  <path d="M395.01,295.46l2.65,7.7-13.9,14c.31-14.41,.66-28,.66-28l-4.83-29.27s4.83,0,5.93,1.49c.49,.46,1.03,.88,1.6,1.23h0l11.83,34.09-3.94-1.24Z" style="fill: #fff;"/>
  <path d="M395.01,219.27c0,3.6-.56,7.19-1.68,10.61-.38,.06-.77-.04-1.08-.27-.26-9-4.69-17.45-10.14-24.64-1.53-2.17-3.39-4.09-5.5-5.7-2.14-1.61-4.8-2.36-7.46-2.11-3,.41-5.65,2.45-8.68,2.71-4,.33-7.58-2.44-11.55-2.58-3.26,.03-6.36,1.47-8.49,3.94-2.09,2.47-3.64,5.34-4.55,8.44-1.57,4.7-2.43,9.61-2.54,14.56-.05,2.8-.32,6.31-2.92,7.33,.4-4.16-.97-8.3-3.77-11.41l-.06-.06v-.82c-.32-18.9,14.73-34.48,33.63-34.8,18.9-.32,34.48,14.73,34.8,33.63,0,.39,0,.78,0,1.17h-.01Z" style="isolation: isolate; opacity: .1;"/>
  <path d="M374.97,164.94c-5.2-2.44-11.11-2.91-16.62-1.3-2.77,.82-5.38,2.15-8.19,2.82-6,1.45-13-.12-18.15,3.39-2.86,2-4.58,5.16-6.18,8.23l-4,7.62c-2.18,4.17-4.38,8.41-5.29,13-.91,4.59-.36,9.73,2.55,13.42,2.12,2.69,5.25,4.38,7.55,6.91,2.79,3.11,4.15,7.24,3.76,11.4,2.61-1,2.86-4.52,2.92-7.32,.11-4.95,.97-9.86,2.54-14.56,.91-3.1,2.46-5.97,4.55-8.44,2.13-2.47,5.23-3.91,8.49-3.94,4,.14,7.59,2.9,11.55,2.57,3-.25,5.66-2.3,8.68-2.7,2.66-.25,5.32,.5,7.46,2.11,2.11,1.6,3.97,3.53,5.49,5.7,5.46,7.19,9.89,15.62,10.15,24.64,1.13,.83,2.76-.25,3.32-1.53s.58-2.78,1.29-4c.82-1.41,2.39-2.16,3.62-3.22,3.12-2.69,3.9-7.22,3.78-11.33s-.92-8.28-.14-12.32c.47-2.48,1.53-4.8,2.11-7.25s.65-5.2-.72-7.31c-2-3.1-6.21-3.71-9.88-4-4.17-.36-7.9,.1-10.56-3.41-1.25-1.83-2.65-3.55-4.2-5.14-.53-.52-5.88-3.82-5.88-4.04Z" style="fill: #512e4e;"/>
  <path d="M266.28,375.82l-10.45-19.32-3.31,29.81s1.84,13.24,1.47,15.27,7.54,20.23,7.54,20.23c0,0,26.13,46.54,36.8,48.94l36.05-25.76-9.56-12.14s-3.31-1.29-4.14,0c0,0-17.75-30.54-19.59-32.75s-1.48-6.62-1.48-6.62c0,0-2.76-2.94-1.84-5.7s-5.33-12.33-5.33-12.33l5.7-5.33-31.86,5.7Z" style="isolation: isolate; opacity: .1;"/>
  <path d="M256.38,354.3l-2.76,2.2-3.31,29.81s1.84,13.24,1.47,15.27,7.55,20.23,7.55,20.23c0,0,26.12,46.54,36.79,48.94l36.06-25.76-9.57-12.14s-3.31-1.29-4.14,0c0,0-17.75-30.54-19.59-32.75s-1.47-6.62-1.47-6.62c0,0-2.76-2.94-1.84-5.7s-5.34-12.33-5.34-12.33l5.7-5.33-39.55-15.82Z" style="fill: #fff;"/>
  <path d="M427.65,471.08c2,2.43,.74,13.34,.74,13.34l-5.52,9.14s.33,5.9,.35,13.85l-9.28,2.9c-2.9,.91-5.99-.71-6.9-3.62-.18-.59-.27-1.2-.25-1.81l1.6-51.61,21.65,8.28c-1.84,1.28,.18,4.42,.18,4.42,0,0-4.59,2.68-2.57,5.11Z" style="isolation: isolate; opacity: .1;"/>
  <path d="M428.76,469.97c2,2.43,.74,13.35,.74,13.35l-5.52,9.14s.33,5.89,.36,13.85l-9.45,2.95c-2.85,.89-5.87-.71-6.76-3.55-.18-.57-.26-1.17-.24-1.77l1.61-51.77,21.66,8.28c-1.85,1.28,.17,4.41,.17,4.41,0,0-4.57,2.69-2.57,5.11Z" style="fill: #fff;"/>
  <path d="M435.93,445.37s-1.47,9.39-5.15,9.94-5.33,15.19-9,14.67-1.24-13.61-1.11-16.15-4-13.06-.91-15.45,12.87,0,12.87,0l3.3,6.99Z" style="fill: #cf6f80;"/>
  <path d="M443.76,373.06l6.94-14s2.76,10.67,2.76,16.37,3.86,6.26,3.86,6.26c0,0,4.23,5,2,8.64s-3.13,12.7-3.13,12.7c0,0,.73,17.29-2.58,19.68s-4,8.1-4,8.1c0,0-6.08,10.85-5.89,13.43s-8.46,20.05-8.46,20.05c0,0,4.23-21.71-20.42-31.09,0,0-.19-7.37,1.65-9.39s4.71-2.94,2.91-13.15-.52-22.41-.52-24.86,5.52-17.73,5.52-17.73l19.36,4.99Z" style="isolation: isolate; opacity: .1;"/>
  <path d="M446.76,357.06l6.06,2s2.77,10.67,2.77,16.37,3.86,6.26,3.86,6.26c0,0,4.23,5,2,8.64s-3.12,12.7-3.12,12.7c0,0,.73,17.29-2.58,19.68s-4.05,8.1-4.05,8.1c0,0-6.07,10.85-5.88,13.43s-8.47,20.05-8.47,20.05c0,0,4.24-21.71-20.42-31.09,0,0-.18-7.37,1.66-9.39s4.71-2.94,2.91-13.15-.52-22.41-.52-24.86,5.52-17.73,5.52-17.73l20.26-11.01Z" style="fill: #fff;"/>
  <path d="M312.91,719.93s9.66-6.07,16-1.66-16,1.66-16,1.66Z" style="isolation: isolate; opacity: .1;"/>
  <path d="M387.97,701.16s8.55-1.1,15.73,6.63-15.73-6.63-15.73-6.63Z" style="isolation: isolate; opacity: .1;"/>
  <g style="opacity: .1;">
    <path d="M400.48,217.55c-1.23,1.06-2.81,1.82-3.63,3.23-.7,1.21-.72,2.7-1.28,4s-2.19,2.36-3.32,1.54c-.26-9-4.7-17.45-10.15-24.65-1.52-2.17-3.38-4.1-5.49-5.7-2.14-1.61-4.8-2.36-7.47-2.11-3,.41-5.64,2.45-8.67,2.7-4,.34-7.59-2.43-11.56-2.57-3.26,.03-6.36,1.47-8.48,3.95-2.09,2.46-3.64,5.33-4.55,8.43-1.57,4.7-2.43,9.61-2.54,14.56-.06,2.79-.32,6.27-2.9,7.31,.06,.74,.06,1.48,0,2.22,2.6-1,2.86-4.52,2.92-7.32,.11-4.95,.97-9.86,2.54-14.56,.91-3.1,2.46-5.97,4.55-8.44,2.13-2.47,5.22-3.91,8.48-3.94,4,.14,7.6,2.9,11.56,2.57,3-.25,5.66-2.3,8.67-2.7,2.67-.25,5.33,.5,7.47,2.11,2.11,1.6,3.97,3.53,5.49,5.7,5.45,7.19,9.89,15.62,10.15,24.64,1.13,.83,2.76-.25,3.32-1.53s.58-2.78,1.28-4c.82-1.41,2.4-2.16,3.63-3.22,3.12-2.69,3.9-7.22,3.78-11.33v-.38c-.19,3.56-1.14,7.19-3.8,9.49Z"/>
    <path d="M326.66,216.84c-2.3-2.53-5.44-4.22-7.55-6.9-1.78-2.37-2.79-5.23-2.91-8.19-.31,3.7,.72,7.39,2.91,10.39,2.11,2.69,5.25,4.38,7.55,6.91,2.21,2.47,3.53,5.61,3.77,8.92,.31-4.07-1.05-8.09-3.77-11.13Z"/>
    <path d="M406.23,186.65c-.59,2.45-1.64,4.78-2.12,7.25-.28,1.65-.39,3.33-.31,5,.03-.95,.14-1.9,.31-2.84,.48-2.48,1.53-4.8,2.12-7.25,.34-1.35,.46-2.75,.33-4.14-.06,.67-.17,1.33-.33,1.98Z"/>
  </g>
  <ellipse cx="132.73" cy="744.94" rx="97.44" ry="15.65" style="fill: #3f3d55; isolation: isolate; opacity: .1;"/>
  <rect x="129.6" y="445.14" width="6.27" height="141.17" style="fill: #535461;"/>
  <path d="M175.27,585.88l-.39,6.36-.56,9-.23,3.74-.55,9-.24,3.74-.56,9-6.32,102.07c-.57,9.11-8.13,16.22-17.26,16.22h-32.86c-9.13,0-16.68-7.11-17.25-16.22l-6.29-102.14-.56-9-.23-3.74-.56-9-.23-3.74-.56-9-.4-6.36c-.28-4.96,3.51-9.21,8.48-9.5,.17,0,.35-.01,.52-.01h67.21c4.94,.04,8.91,4.08,8.86,9.02,0,.19,0,.38-.02,.56Z" style="fill: #3f3d56;"/>
  <polygon points="174.88 592.24 174.32 601.21 91.14 601.21 90.58 592.24 174.88 592.24" style="fill: #9d9cb5;"/>
  <polygon points="174.09 604.95 173.54 613.93 91.93 613.93 91.37 604.95 174.09 604.95" style="fill: #9d9cb5;"/>
  <polygon points="173.3 617.68 172.75 626.65 92.72 626.65 92.16 617.68 173.3 617.68" style="fill: #9d9cb5;"/>
  <path d="M81.01,498.05c36.51,26.42,51.75,67.74,51.75,67.74,0,0-44-1.51-80.52-27.93S.51,470.13,.51,470.13c0,0,43.98,1.5,80.5,27.92Z" style="fill: #024f5e;"/>
  <path d="M.48,470.13s45.68,25.35,60.33,46.34,71.95,49.32,71.95,49.32" style="fill: none; stroke: #535461; stroke-miterlimit: 10; stroke-width: 2px;"/>
  <path d="M104.58,444.83c19.87,14.37,28.18,36.86,28.18,36.86,0,0-23.95-.82-43.83-15.19s-28.17-36.87-28.17-36.87c0,0,23.94,.82,43.82,15.2Z" style="fill: #024f5e;"/>
  <path d="M60.76,429.63s24.86,13.8,32.83,25.22,39.17,26.84,39.17,26.84" style="fill: none; stroke: #535461; stroke-miterlimit: 10; stroke-width: 2px;"/>
  <path d="M161.61,480.55c-22.83,25.09-27.66,57.88-27.66,57.88,0,0,32.19-7.9,55-33s27.66-57.88,27.66-57.88c0,0-32.17,7.91-55,33Z" style="fill: #024f5e;"/>
  <path d="M216.63,447.56s-29.74,25.72-37.3,43.44-45.38,47.43-45.38,47.43" style="fill: none; stroke: #535461; stroke-miterlimit: 10; stroke-width: 2px;"/>
  <path d="M999.67,471.72s-16.51-82.14-10.19-92.36c0,0,.23-9.5-.15-21.61v-1.39c1.11,.74,2.27,1.41,3.47,2,5.82,2.99,12.51,3.85,18.9,2.44l-5-5.57c-1.2-1.33-2.45-2.77-2.71-4.53s.46-3.33,1.08-4.9c4.75-12,5-27.09-4.15-36.25-7.73-7.7-9.61-17.64-18-24.67-6.13-5.15-9.5-12.7-12.68-20-2.69-6.17-5.4-12.39-6.94-18.93-1.2-5.11-1.68-10.4-3.33-15.39s-4.74-9.84-9.57-12.07c-1.72-.79-3.63-1.24-5.2-2.29-2.06-1.39-3.3-3.65-4.79-5.63-7.57-10-32.92-4.11-44.92-.05-3.26,1.02-6.28,2.7-8.88,4.92l.11-.18c.09-.15,.2-.3,.3-.45-1.31,1.06-2.45,2.33-3.36,3.75-1.75,2.77-2.48,6-3.94,9-1.76,3.55-11.55,13.46-7.34,17.45,.3,.27,.63,.48,1,.64,1.58,.66,3.32,.83,5,.5l-.18,.43c-1.44,3.52-2.17,7.29-2.17,11.09,0,16.43,13.55,29.75,30.28,29.75,3.15,0,6.27-.48,9.27-1.43,.07,.38,.13,.76,.2,1.14,0,.15,.05,.3,.07,.45h0l-.53,.74s-.06-.09-.09-.13l-15.7,21.94c-2.4,1.69-16.22,11.69-17,19.19-.82,8.21-1.64,17.82-1.64,17.82l-.11,2.06c-1.39,1.16-3.22,1.65-5,1.35-4.9-.8-4.9,18-4.9,18,0,0-3.26,3-5.5,.4s-8.16,6.21-8.16,6.21l-37.1,1.6h0l-.85,.05-2-6.19c-.45-1.36-1.91-2.1-3.27-1.67-.15,.05-.31,.11-.45,.19l-.14,.08-.26,.18-.13,.12c-.07,.07-.14,.14-.2,.21l-.12,.14-.06,.06h0c-.47,.65-.6,1.48-.36,2.24l1.72,5.31c-7.16,1.44-14.48,5.5-8.51,16.68l-30.26-5.59,9.79,8.22,50.54,10.43c-.67,1.2-.23,2.94,1.86,5.39,9,10.57,25.4,13.44,32,14.18,1.74,3.9,3.92,7.59,6.49,11l-.57,10.53s-16.71,80.26-19.77,84.33c1.54-1.75,2.96-3.61,4.23-5.57-4.85,16.49-11.63,39.06-13.41,42.44-2.86,5.4-5.51,27.25-2.25,28.65,1,.43,3.86,.22,7.94-.09v1.81l-.18,68.59s.82,42.07-1.43,46.08-2.85,12.42-2.85,12.42c0,0-9,16.59-16.13,23.26-.05,.05-.1,.1-.16,.14l-.22-1.56s-8.57,10.82-27.53,10.21c0,0-11.41,7.42,5.51,7.82s38.53-.6,38.53-.6c0,0,15.09-23,27.73-20v17.43h3.87v-17.71c3.63-2.39,6.12-6.16,6.89-10.43,.67-4.43-1.04-8.89-4.52-11.73-1.55-1.4-2.45-3.39-2.47-5.48l-.14,.12c0-.35-.09-.71-.13-1.08-1.11-9-2.5-27.57,2.41-41.31,6.73-18.84,8.77-45.08,3.87-60.7-1.58-4.99-2.88-10.07-3.89-15.21-.12-.65-.23-1.27-.33-1.85,3.35,.45,6.67,1.12,9.93,2,11.35,3.13,36.18,3.71,57.38,3.54,.05,.58,.11,1.19,.18,1.8,.38,4.24,1.17,8.43,2.36,12.52,2.66,8,3.88,43.27,3.88,43.27,0,0,3.43,29,1.56,40.8-1,6.56-2,13.15-2.57,19.77v.13s-5.62,16-9.73,24.69c-.1,.22-.21,.44-.31,.65-1.1,.1-2.17,.34-3.21,.71,0,0-5.51,11-11,12.82s-3.67,7.81,8.76,5.61,31.2-4,31.2-4l.81-11.22,3.82-4.78-1,11.19,4.07-.8-.54-13.61,6.25-7.82s7.55-6.72-3.67-19.94v.29c-.12-.19-.23-.39-.36-.58v-.06c-1.86-2.88-3.34-8.25-.63-17.78,4.9-17.22,7.75-32.85,7.75-32.85,0,0,10.94-41.87-2.21-61.68h.58c-1.35-2.79-2.3-5.75-2.83-8.8-.07-.36-.13-.73-.18-1.11,9.73-.56,19.28-2.32,27.07-6.12-.03-.04-4.72-99.4-8.6-115.22Zm-123.53-69.3v.2l-2,.1,2-.3Zm-6.86,.95c-.33,.07-.64,.22-.9,.43-.86,1.22-1.4,2.63-1.57,4.11l-3.12-.7s-2.19-.47-5.34-1l-1.49-1.5c4.1-.34,8.36-.84,12.42-1.34Z" style="fill: url(#Dégradé_sans_nom_2);"/>
  <polygon points="972.51 743.53 971.32 757.7 975.31 756.9 974.71 741.53 972.51 743.53" style="fill: #1d2366;"/>
  <path d="M881.48,676.25c-4.81,13.7-3.45,32.19-2.37,41.17,.4,3.32,.77,5.34,.77,5.34,0,0-7.19,16.38-7.79,17s-21.16,13.17-21.16,13.17l-14.37,8.39s-14.58-6.39-7.59-8.59c1.43-.57,2.71-1.45,3.77-2.57,7-6.65,15.79-23.18,15.79-23.18,0,0,.6-8.39,2.8-12.38s1.4-45.92,1.4-45.92l.17-68.35v-8.91l27.35,.2c.17,3.02,.57,6.03,1.18,9,.98,5.12,2.25,10.18,3.81,15.16,4.82,15.59,2.82,41.7-3.76,60.47Z" style="fill: #ffb0b1;"/>
  <path d="M879.88,722.76s-7.19,16.38-7.79,17-21.16,13.17-21.16,13.17l-14.37,8.39s-14.58-6.39-7.59-8.59c1.43-.57,2.71-1.45,3.77-2.57l.62,4.37,4.79-.2,41-36.89c.36,3.3,.73,5.32,.73,5.32Z" style="isolation: isolate; opacity: .1;"/>
  <path d="M879.38,718.37l-41.23,37.14-4.79,.2-1-7s-8.38,10.78-27,10.18c0,0-11.18,7.39,5.39,7.79s37.73-.6,37.73-.6c0,0,14.78-23,27.15-20v17.37h3.8v-17.53c3.57-2.4,6-6.16,6.74-10.4,.67-4.4-1-8.82-4.41-11.68-1.51-1.42-2.37-3.4-2.38-5.47Z" style="fill: #1d2366;"/>
  <path d="M976.31,697.61c-2.66,9.5-1.21,14.85,.61,17.72v.06c2.33,3.54,3.96,7.51,4.78,11.67l.16,.9-18.76,27.35-10.18,4s-16.37-5.59-13.38-7.19c.75-.39,1.92-2.47,3.26-5.34,4-8.65,9.52-24.61,9.52-24.61v-.13c.58-6.59,1.5-13.16,2.52-19.7,1.83-11.77-1.53-40.66-1.53-40.66,0,0-1.2-35.13-3.8-43.12-1.17-4.06-1.95-8.23-2.33-12.44-.54-5-.66-9.12-.66-9.12,0,0,10.78-15,30.54,1.2,1.58,1.29,2.97,2.8,4.13,4.48,13.65,19.42,2.66,62.2,2.66,62.2,0,0-2.75,15.56-7.54,32.73Z" style="fill: #ffb0b1;"/>
  <path d="M981.89,727.96l-18.76,27.35-10.18,4s-16.37-5.59-13.38-7.19c.75-.39,1.92-2.47,3.26-5.34,6.93-.06,10.52,6.54,10.52,6.54l8.78-1.4s11.58-22.76,14.18-24.15,.4-10.39,.4-10.39v-2.29c.07,.08,.13,.17,.21,.25v.06c2.33,3.54,3.96,7.51,4.78,11.67l.19,.89Z" style="isolation: isolate; opacity: .1;"/>
  <path d="M953.95,753.91s-5-9.18-14.58-5.79c0,0-5.39,11-10.78,12.78s-3.59,7.78,8.59,5.59,30.54-4,30.54-4l.8-11.19,12.38-15.77s7.38-6.69-3.6-19.86v2.29s2.2,9-.4,10.39-14.14,24.16-14.14,24.16l-8.81,1.4Z" style="fill: #1d2366;"/>
  <path d="M880.28,591.6c.17,3.02,.57,6.03,1.18,9-11.26-1.65-21.71-.83-28.56-.29v-8.91l27.38,.2Z" style="isolation: isolate; opacity: .1;"/>
  <path d="M982.3,605.17s-16,.78-35.08,.94c-.54-5-.66-9.12-.66-9.12,0,0,10.78-15,30.54,1.2,1.58,1.29,2.97,2.8,4.13,4.48,.31,.85,.67,1.69,1.07,2.5Z" style="isolation: isolate; opacity: .1;"/>
  <path d="M982.3,603.37s-70.08,3.39-91.44-2.6-42.53-.8-45.72-2.19-.6-23.16,2.2-28.55,18.16-59.9,18.16-59.9l14.78-77.06,15.57-4.29,1.1-.31,27.13-7.48,19.88-5.49s39.53,154.33,36.14,165.71c-1.23,4.36-1.43,8.94-.58,13.39,.52,3.04,1.45,5.99,2.78,8.77Z" style="fill: #1d2366;"/>
  <path d="M828.76,380.37s-14,15-3.4,23.36,17.57,.8,17.57,.8l-14.17-24.16Z" style="fill: #c7daf5;"/>
  <path d="M828.76,380.37s-14,15-3.4,23.36,17.57,.8,17.57,.8l-14.17-24.16Z" style="isolation: isolate; opacity: .1;"/>
  <path d="M941.87,281.75s-1.64,1.56-4.11,3.86c-3.52,3.29-8.73,8.1-13.35,12.13-6.4,5.57-11.68,9.66-9.79,6.17s1.53-9.57,.59-15.26c-.07-.38-.13-.76-.2-1.13-.78-4.18-1.81-8.31-3.09-12.36,0,0,10.34-13.36,16.06-18.63,2.13-2,3.62-2.82,3.71-1.43,.1,1.87,1.5,6,3.24,10.38,.05,.14,.1,.27,.16,.41,1.16,3,2.47,6.08,3.62,8.74,1.76,4.08,3.16,7.12,3.16,7.12Z" style="fill: #ffb0b1;"/>
  <path d="M935.09,265.89c-1.98,10.64-9.6,19.37-19.88,22.76-.8-4.56-1.89-9.07-3.29-13.49,0,0,19.47-25.15,19.77-20.06,.07,1.93,1.59,6.21,3.4,10.79Z" style="isolation: isolate; opacity: .1;"/>
  <path d="M913.27,295.37l2.52-3.55s1.67,10.18,7.81,5.69,6.44,33.79,6.44,33.79l-6.59,98.53-47.62-2.85,1.35-47.61,5.39-24,13.33-34.89,7.93-11.53,9.44-13.58Z" style="isolation: isolate; opacity: .1;"/>
  <path d="M930.04,331.91l-6,89.09-.63,9.44-26.55-1.59-1-.06-20-1.2,1.35-47.62,5.39-24,13.33-34.89,7.93-11.53,9.44-13.63,2.52-3.54s1.67,10.18,7.81,5.69l.13-.09h0c6-3.8,6.28,33.93,6.28,33.93Z" style="fill: #1d2366;"/>
  <path d="M883.27,347.63s-2.39,5-7.19,4.19-4.79,18-4.79,18c0,0-3.19,3-5.39,.4s-8,6.19-8,6.19l-36.34,1.6s16.17,7.39,13,29.75c0,0,54.9-3.4,56.7-8.59s-7.99-51.54-7.99-51.54Z" style="fill: #fff;"/>
  <path d="M883.27,347.63s-2.39,5-7.19,4.19-4.79,18-4.79,18c0,0-3.19,3-5.39,.4s-8,6.19-8,6.19l-36.34,1.6s16.17,7.39,13,29.75c0,0,54.9-3.4,56.7-8.59s-7.99-51.54-7.99-51.54Z" style="isolation: isolate; opacity: .03;"/>
  <polygon points="777.66 389.76 787.24 397.94 866.1 414.51 856.32 404.53 777.66 389.76" style="fill: #fff;"/>
  <path d="M913.42,298.52c-1.31,2-5.06,12.24-8.19,21.18-2.61,7.45-4.79,14-4.79,14,0,0-5.09,33.14-7.69,39.13s-1.19,29.35-1.19,29.35l-9.69,57.69s-4.39,29.75-11.17,47.52c-6.69,17.49-14.14,25.69-14.37,25.95,3-4.06,19.35-84,19.35-84l5.4-100.82s.79-9.58,1.59-17.77,17-19.37,17-19.37l15.62-22.21c1.57,2.1,.52,5.76-1.87,9.35Z" style="fill: #fff;"/>
  <path d="M872.69,428.09s-23-1-34.14-14.38,25.75-5.34,25.75-5.34l9.59,2.2-1.2,17.52Z" style="fill: #ffb0b1;"/>
  <path d="M980.1,581.22c-1.23,4.36-1.43,8.94-.58,13.39-25.09,1.78-51.93-5-51.93-5-5,4.6-18.17,11.38-18.17,11.38l-7.18-89c-4.59-12-6.39-74.87-6.39-74.87,0,0,.41-3.29,1-8.22,0-.12,0-.25,.05-.37,1.79-13.77,5.34-39.62,7.08-43.11,2.4-4.8-7.38-17.57-7.38-17.57l4.45-37.95,.54-4.58c9.38-4.19,16.57-17.57,16.57-17.57l5.52-9.67h0c6-3.85,6.31,33.88,6.31,33.88l-6,89.09,19.88-5.49s39.62,154.28,36.23,165.66Z" style="isolation: isolate; opacity: .1;"/>
  <path d="M1005.85,587.37c-27.35,13.58-77.06,1-77.06,1-5,4.6-18.17,11.38-18.17,11.38l-7.19-89c-4.58-12-6.38-74.87-6.38-74.87,0,0,5.78-46.91,8.18-51.7,.7-1.4,.36-3.48-.47-5.72-4.08-10.66-5.58-22.14-4.38-33.49l1.92-16.31,.53-4.57c9.39-4.2,16.58-17.58,16.58-17.58l5-8.76,9.2-16.14,4.36-7.64,.74,.67,5.65,5.12s2.4,2,6,5c7.83,6.6,21.36,18.22,28.34,25.33,6.14,6.26,8.08,30.61,8.64,48.94,.37,12.07,.15,21.53,.15,21.53-6.19,10.19,10,92,10,92,3.77,15.81,8.36,114.81,8.36,114.81Z" style="fill: #fff;"/>
  <path d="M953.35,306.31s-18.77,35.73-16.59,49.31,8.38,28.95,5.39,32.54c-2.08,2.76-5.33,4.38-8.79,4.39-3,.2-11,5.79-11,6.39s-7.39,.6-14,3.4-16.37,4.39-16.37,4.39c0,0-19-.6-20.77,1.2s-3.59,12.57,.2,21.16,8,15,11.18,16.17,23.36-5.59,39.73-7.19,34.14-14.57,34.14-14.57c0,0,19.57-7,23-18.77s-4.19-76.46-4.19-76.46c0,0-5.76-30.15-21.93-21.96Z" style="isolation: isolate; opacity: .03;"/>
  <path d="M950.95,303.31s-18.77,35.74-16.57,49.31,8.38,28.95,5.38,32.55c-2.08,2.76-5.33,4.39-8.78,4.39-3,.2-11,5.79-11,6.39s-7.39,.6-14,3.39-16.37,4.39-16.37,4.39c0,0-19-.6-20.76,1.2s-3.6,12.58,.2,21.16,8,15,11.18,16.17,23.36-5.59,39.73-7.18,34.14-14.58,34.14-14.58c0,0,19.56-7,22.95-18.76,3.39-11.76-4.19-76.47-4.19-76.47,0,0-5.74-30.14-21.91-21.96Z" style="isolation: isolate; opacity: .03;"/>
  <path d="M952.76,304.51s-18.77,35.74-16.57,49.31,8.38,28.95,5.39,32.54c-2.08,2.77-5.33,4.4-8.79,4.4-3,.2-11,5.79-11,6.38s-7.38,.6-14,3.4-16.37,4.39-16.37,4.39c0,0-19-.6-20.77,1.2s-3.59,12.58,.2,21.16,8,15,11.18,16.17,23.36-5.59,39.73-7.19,34.14-14.57,34.14-14.57c0,0,19.57-7,23-18.77,3.43-11.77-4.14-76.46-4.14-76.46,0,0-5.84-30.1-22-21.96Z" style="fill: #fff;"/>
  <path d="M952.35,400.37s-15-3-9.78,2,5.19,9.38,11.58,9.18-1.8-11.18-1.8-11.18Z" style="isolation: isolate; opacity: .1;"/>
  <path d="M977.7,507.95s-6.78,4.59,6.19,15.17-6.19-15.17-6.19-15.17Z" style="isolation: isolate; opacity: .1;"/>
  <path d="M964.76,545.68c0,.6-2.4,22,6.58,27.35s-6.58-27.35-6.58-27.35Z" style="isolation: isolate; opacity: .1;"/>
  <path d="M822.18,377.96c-7.24,.25-22.88,2.46-14.77,17.59,7.17,13.39,19.22,4.44,26-2.35-1.65-6.33-5.67-11.79-11.23-15.24Z" style="fill: #ffb0b1;"/>
  <path d="M833.5,393.08l.3-.31-.3,.31Z" style="fill: #ffb0b1;"/>
  <path d="M950.36,285.37c-7.68,5.25-14.12,9.68-15.38,10.6-3.44,2.55-10,17.52-14.23,25.16-3.37,6.15-14.32,7.73-18.45,8.12l.53-4.57c9.39-4.2,16.58-17.58,16.58-17.58l18.56-32.54,6.39,5.81s2.4,2,6,5Z" style="isolation: isolate; opacity: .1;"/>
  <path d="M950.36,284.77c-7.68,5.25-14.12,9.68-15.38,10.61-3.44,2.54-10,17.51-14.23,25.15-3.37,6.15-14.32,7.73-18.45,8.12l.53-4.57c9.39-4.2,16.58-17.58,16.58-17.58l18.56-32.54,6.39,5.79s2.4,1.98,6,5.02Z" style="fill: #dce7ff;"/>
  <path d="M935.58,259.29c0,6-1.82,11.87-5.22,16.81-9.28,13.5-27.75,16.92-41.24,7.64-13.5-9.28-16.92-27.75-7.64-41.24s27.75-16.92,41.24-7.64c8.05,5.53,12.85,14.67,12.86,24.43Z" style="fill: #ffb0b1;"/>
  <path d="M987.34,359.04c-4.06-2.5-7.37-6.05-9.57-10.28-1.67-3.3-2.78-7.11-5.63-9.45-2.57-2.1-6-2.61-9.2-3.55-10.52-3.11-19.34-12.71-19.67-23.67-.16-5.16,1.45-10.31,.72-15.42-.42-2.89-1.57-5.63-3.34-7.95-.88-1.11-1.85-2.15-2.89-3.11-1.4-1.32-2.87-2.6-4.15-4-.81-.87-1.51-1.82-2.1-2.85-.48-.84-.86-1.73-1.15-2.65-2-6.12-.18-13.38-2.38-19.57l-.12-.34c-.83-2.2-2.52-4.4-4.87-4.57s-4.36,1.78-6.6,2.65c-4.69,1.82-9.75-1.28-13.66-4.44s-8.32-6.77-13.29-6.07c-3.29,.47-5.89,2.71-8.92,3.87-.68,.26-1.39,.47-2.11,.61,6.09-15.2,23.36-22.58,38.56-16.48,11.25,4.51,18.62,15.41,18.61,27.53,0,2.08-.21,4.16-.65,6.19,.05,.14,.1,.27,.16,.41,1.16,3,2.47,6.08,3.62,8.74l5.65,5.12s2.4,2,6,5c7.83,6.6,21.36,18.22,28.34,25.33,6.14,6.28,8.06,30.62,8.64,48.95Z" style="isolation: isolate; opacity: .1;"/>
  <path d="M880.17,229.37c1.43-2.91,2.14-6.17,3.85-8.93,2.51-4,6.89-6.56,11.39-8.11,11.75-4.05,36.58-9.93,44,0,1.46,2,2.67,4.22,4.69,5.6,1.54,1.05,3.4,1.5,5.09,2.29,4.73,2.22,7.75,7.06,9.36,12s2.09,10.24,3.27,15.33c1.51,6.53,4.16,12.72,6.8,18.87,3.11,7.26,6.41,14.79,12.41,19.92,8.19,7,10,16.91,17.6,24.59,9,9.12,8.71,24.17,4.07,36.12-.61,1.57-1.3,3.21-1.06,4.88s1.48,3.19,2.65,4.52l4.92,5.55c-11.64,2.81-24.81-3.27-30.23-13.94-1.67-3.3-2.78-7.1-5.64-9.45-2.56-2.1-6-2.6-9.19-3.54-10.52-3.12-19.34-12.73-19.67-23.69-.16-5.15,1.45-10.3,.72-15.4-.41-2.91-1.56-5.67-3.35-8-2.75-3.59-6.9-6-9.14-10-3.79-6.69-.91-15.38-3.64-22.56-.84-2.2-2.52-4.4-4.87-4.57s-4.36,1.78-6.61,2.65c-4.68,1.82-9.74-1.27-13.65-4.44s-8.32-6.77-13.3-6.06c-3.29,.46-5.88,2.7-8.91,3.87-2.24,.86-6.78,1.63-8.74-.26-4.14-3.81,5.45-13.68,7.18-17.24Z" style="fill: #591d4b;"/>
  <path d="M981.76,344.76c-1.68-3.3-2.78-7.1-5.64-9.44-2.56-2.1-6-2.61-9.2-3.55-10.51-3.11-19.33-12.72-19.67-23.68-.16-5.15,1.45-10.31,.73-15.41-.42-2.89-1.57-5.63-3.35-7.95-2.76-3.59-6.91-6-9.14-10-3.79-6.68-.91-15.37-3.65-22.56-.83-2.19-2.52-4.39-4.86-4.57s-4.37,1.79-6.61,2.66c-4.68,1.82-9.75-1.28-13.65-4.44s-8.33-6.77-13.3-6.07c-3.29,.47-5.89,2.71-8.91,3.87-2.24,.86-6.79,1.64-8.75-.25-4.12-4,5.47-13.85,7.19-17.39,1.43-2.92,2.14-6.17,3.86-8.93,.09-.15,.19-.3,.29-.45-1.29,1.07-2.4,2.33-3.29,3.74-1.71,2.76-2.42,6-3.85,8.93-1.73,3.54-11.32,13.42-7.19,17.39,2,1.9,6.5,1.12,8.74,.26,3-1.17,5.62-3.41,8.91-3.87,5-.71,9.4,2.9,13.3,6.06s9,6.26,13.66,4.44c2.24-.87,4.2-2.83,6.6-2.65s4,2.37,4.87,4.57c2.73,7.18-.15,15.87,3.64,22.56,2.24,3.93,6.39,6.39,9.14,10,1.79,2.33,2.94,5.09,3.35,8,.73,5.1-.88,10.25-.72,15.4,.33,11,9.15,20.57,19.67,23.69,3.17,.94,6.63,1.44,9.19,3.54,2.87,2.35,4,6.15,5.64,9.45,5.42,10.67,18.59,16.75,30.23,13.94l-2.32-2.62c-10.09,.15-20.3-5.59-24.91-14.67Z" style="isolation: isolate; opacity: .1;"/>
  <path d="M912.82,299.12c-1.31,2-5.06,12.24-8.19,21.18-2.93-1.14-5.59-8.41-5.59-8.41l15.62-22.22c1.6,2.2,.55,5.85-1.84,9.45Z" style="isolation: isolate; opacity: .1;"/>
  <path d="M913.42,298.52c-1.31,2-5.06,12.24-8.19,21.18-2.93-1.13-5.59-8.41-5.59-8.41l15.62-22.21c1.6,2.19,.55,5.85-1.84,9.44Z" style="fill: #dce7ff;"/>
  <path d="M822.6,400.68l-8.66-27.31c-.43-1.34,.31-2.78,1.65-3.21,0,0,0,0,.01,0h0c1.34-.42,2.77,.32,3.2,1.66l8.66,27.28-.86,5.71-4-4.13Z" style="fill: #be8b87;"/>
  <path d="M814.76,370.97h0c1.34-.43,2.78,.32,3.21,1.66l8.66,27.28-.65,4.28,.63,.66,.86-5.71-8.71-27.28c-.43-1.34-1.86-2.08-3.2-1.66h0c-.54,.18-1.01,.53-1.33,1,.17-.09,.35-.17,.53-.23Z" style="fill: #fff; isolation: isolate; opacity: .1;"/>
  <polygon points="822.6 400.68 827.46 399.14 826.75 403.82 826.6 404.85 825.18 403.37 822.6 400.68" style="fill: #efc8c4;"/>
  <path d="M825.18,403.37c.08-.11,.19-.2,.31-.26,.14-.09,.33-.09,.47,0,.07,.08,.13,.17,.17,.27,.13,.22,.36,.37,.62,.41l-.15,1-1.42-1.42Z" style="fill: #727a9c;"/>
  <path d="M813.89,383.07s17.37-.1,13.28,7.29-10.48,8.28-10.48,8.28l-2.8-15.57Z" style="fill: #ffb0b1;"/>
  <path d="M705.86,51.42h-.75c-29.84,0-56.23,15.79-71.41,39.09-15.18-23.3-41.57-39.09-71.41-39.09h-.75c-46.61,.44-84.16,38.34-84.19,84.95,0,27.81,12.18,67.27,35.93,99.74,45.25,61.87,120.42,116,120.42,116,0,0,75.17-54.12,120.41-116,23.76-32.47,35.93-71.93,35.93-99.74-.03-46.61-37.58-84.5-84.18-84.95Zm-10.73,189.45c-6.96-.03-13.18-4.32-15.67-10.82h-17.84c-2.41-.01-4.54-1.56-5.31-3.84l-5.48-16.51-17.34,60.59c-.69,2.4-2.89,4.05-5.38,4.05h-.35c-2.61-.13-4.78-2.06-5.2-4.64l-17.87-107.48-13.06,63.6c-.62,2.49-2.85,4.23-5.41,4.23h-25.13c-3.08,.13-5.69-2.26-5.82-5.35-.13-3.08,2.26-5.69,5.35-5.82,.16,0,.32,0,.47,0h20.73l18.5-85.51c.72-3.01,3.75-4.87,6.77-4.14,2.22,.53,3.89,2.35,4.23,4.6l18.25,109.64,15.54-54.21c.66-2.34,2.79-3.97,5.23-4h.11c2.41,0,4.55,1.55,5.3,3.84l9.91,29.81h13.58c2.89-8.79,12.37-13.57,21.16-10.68,8.79,2.89,13.57,12.37,10.68,21.16-2.26,6.87-8.68,11.52-15.92,11.52l-.03-.04Z" style="fill: #024f5f;"/>
</svg>